# xmcd
#
# Track frame offsets:
# 150
# 13779
# 26209
# 41909
# 59340
# 79103
# 100954
# 116824
# 133058
# 146714
# 163050
# 178563
# 192102
# 208827
# 224095
# 240094
# 256437
# 274090
# 292399
# 306363
#
# Disc length: 4226 seconds
#
#
# Revision: 0
# Processed by: cddbd v1.5.1PL0 Copyright (c) Steve Scherf et al.
# Submitted via: FreeRIP 2.80 
#
DISCID=41108014
DTITLE=Various Artist - Saloon Tunes 26
DYEAR=1900
DGENRE=country
TTITLE0=Brooks and dunn - You'll always Be Loved By Me
TTITLE1=Danni Leigh - Honey I Do
TTITLE2=Eric Heatherly - Flowers on the Wall
TTITLE3=Gary Allen - Lovin You Against My Will
TTITLE4=George Strait and Aan Jackson - Murder on Music Row
TTITLE5=Lee Ann Womack - I Hope You Dance
TTITLE6=Lonestar - What About Now
TTITLE7=Montgomery Gentry - Self Made Man
TTITLE8=Randy Travis - A Little Left of Center
TTITLE9=Rascal Flatts - Prayin For Daylight
TTITLE10=Rebecca Lynn Howard - Out Here In THe Water
TTITLE11=Ricochet - Do I Love You Enough
TTITLE12=Shedaisy - I Will but
TTITLE13=Sons Of The desert - Change
TTITLE14=The Kinleys - She Ain't the Girl For You
TTITLE15=The Warren Brothers/ That's The Beat Of A Heart
TTITLE16=Trisha Yearwood - Real Live Woman
TTITLE17=Vince Gill - Let's Make Sure We Kiss Goodbye
TTITLE18=Eddy Arnold - Tennessee Stud
TTITLE19=Leroy Van Dyke - If A woman Ansers
EXTD=
EXTT0=
EXTT1=
EXTT2=
EXTT3=
EXTT4=
EXTT5=
EXTT6=
EXTT7=
EXTT8=
EXTT9=
EXTT10=
EXTT11=
EXTT12=
EXTT13=
EXTT14=
EXTT15=
EXTT16=
EXTT17=
EXTT18=
EXTT19=
PLAYORDER=
